<svg width="310" height="100" viewBox="0 0 310 100" fill="none" xmlns="http://www.w3.org/2000/svg">
<rect width="310" height="100" fill="#D41515"/>
<path d="M173.045 49.365C177.755 44.66 180.67 38.16 180.67 30.99C180.67 16.66 169.005 5 154.67 5C147.65 5 141.285 7.8 136.6 12.335C136.495 12.42 135.875 13.05 135.67 13.27C131.335 17.915 128.68 24.15 128.68 30.99C128.68 45.325 140.34 56.985 154.675 56.985C161.69 56.985 168.06 54.185 172.745 49.65C172.845 49.565 172.955 49.47 173.045 49.365ZM178.625 30.99C178.625 37.725 175.825 43.81 171.34 48.17C170.685 48.695 169.83 49 168.94 49C166.88 49 165.205 47.325 165.205 45.265V11.965H163.165V45.265C163.165 47.325 161.49 49 159.43 49C157.37 49 155.695 47.325 155.695 45.265V11.965H153.65V45.265C153.65 47.325 151.975 49 149.915 49C147.855 49 146.18 47.325 146.18 45.265V16.72C146.18 13.89 144.13 11.53 141.44 11.04C145.235 8.515 149.78 7.04 154.67 7.04C167.88 7.04 178.625 17.79 178.625 30.99ZM130.715 30.99C130.715 24.255 133.515 18.17 138.005 13.81C138.66 13.285 139.515 12.985 140.4 12.985C142.46 12.985 144.135 14.66 144.135 16.72V45.26C144.135 48.445 146.73 51.035 149.91 51.035C151.885 51.035 153.625 50.04 154.67 48.53C155.71 50.04 157.45 51.035 159.425 51.035C161.4 51.035 163.135 50.04 164.18 48.53C165.035 49.77 166.365 50.655 167.9 50.935C164.1 53.46 159.555 54.94 154.67 54.94C141.465 54.945 130.715 44.195 130.715 30.99Z" fill="white"/>
<path d="M132.185 65.2656V83.2606H119V65.2656H121.04V81.2956H124.56V65.2656H126.6V81.2956H130.145V65.2656H132.185Z" fill="white"/>
<path d="M136.244 79.4605C136.314 80.8905 136.969 81.6055 138.209 81.6055C138.624 81.6055 138.954 81.5155 139.209 81.3505C139.454 81.1755 139.654 80.9555 139.804 80.6855C139.954 80.4205 140.049 80.1355 140.104 79.8355C140.159 79.5305 140.184 79.2505 140.184 78.9905V75.0355H136.014V73.0505H140.179V69.6855C140.179 68.8755 140.024 68.2205 139.724 67.7305C139.424 67.2355 138.884 66.9955 138.114 66.9955C137.479 66.9955 136.999 67.2105 136.689 67.6455C136.379 68.0755 136.199 68.6155 136.149 69.2705L134.134 68.8055C134.249 67.6655 134.644 66.7705 135.309 66.1055C135.969 65.4355 136.949 65.1055 138.239 65.1055C139.104 65.1055 139.794 65.2505 140.324 65.5355C140.854 65.8205 141.259 66.1955 141.544 66.6605C141.824 67.1255 142.014 67.6455 142.094 68.2155C142.184 68.7855 142.224 69.3605 142.224 69.9255V79.1055C142.224 80.4805 141.889 81.5505 141.214 82.3105C140.544 83.0705 139.529 83.4505 138.164 83.4505C136.919 83.4505 135.974 83.1405 135.324 82.5155C134.669 81.8955 134.279 81.0155 134.159 79.8805L136.244 79.4605Z" fill="white"/>
<path d="M147.786 74.2207C147.786 75.8757 147.721 77.2458 147.606 78.3258C147.481 79.4008 147.291 80.2908 147.021 80.9908C146.756 81.6908 146.406 82.2458 145.976 82.6608C145.546 83.0758 145.011 83.4458 144.371 83.7758L143.441 82.3008C143.816 82.0208 144.161 81.7508 144.471 81.4608C144.781 81.1758 145.051 80.8058 145.276 80.3458C145.501 79.8908 145.666 79.3058 145.776 78.5858C145.891 77.8708 145.941 76.9458 145.941 75.8058V65.2607H153.441V83.2558H151.406V67.1507H147.786V74.2207Z" fill="white"/>
<path d="M156.779 86.6955H154.969V81.6005L155.744 81.4755C155.969 81.3355 156.164 81.1405 156.339 80.8955C156.514 80.6455 156.664 80.3105 156.794 79.9005C156.924 79.4855 157.019 78.9605 157.094 78.3355C157.159 77.7055 157.214 76.9555 157.249 76.0755L157.559 65.2705H165.189V81.5005H166.094V86.6955H164.284V83.2555H156.789V86.6955H156.779ZM163.139 81.5005V67.0505H159.364L159.079 76.2005C159.044 77.4955 158.949 78.5605 158.799 79.4105C158.639 80.2555 158.384 80.9555 158.024 81.5055H163.139V81.5005Z" fill="white"/>
<path d="M175.92 78.4255C175.92 80.0255 175.605 81.2655 174.975 82.1355C174.345 83.0055 173.27 83.4405 171.755 83.4405C170.27 83.4405 169.215 83.0355 168.585 82.2255C167.96 81.4155 167.64 80.3505 167.64 79.0155V70.1555C167.64 69.5105 167.7 68.8905 167.81 68.2905C167.925 67.6905 168.125 67.1455 168.43 66.6755C168.735 66.2055 169.155 65.8205 169.685 65.5355C170.215 65.2505 170.915 65.1055 171.78 65.1055C172.675 65.1055 173.395 65.2305 173.945 65.4855C174.48 65.7305 174.9 66.0805 175.195 66.5255C175.495 66.9805 175.685 67.5005 175.775 68.1055C175.875 68.7055 175.92 69.3705 175.92 70.0955V78.4255ZM173.87 69.7805C173.87 69.4705 173.85 69.1505 173.805 68.8305C173.76 68.5005 173.67 68.2055 173.535 67.9405C173.395 67.6705 173.185 67.4455 172.895 67.2705C172.61 67.0855 172.235 66.9955 171.77 66.9955C171.255 66.9955 170.86 67.1205 170.585 67.3655C170.3 67.6205 170.1 67.9105 169.96 68.2605C169.825 68.6005 169.74 68.9705 169.715 69.3555C169.685 69.7405 169.675 70.0655 169.675 70.3205V79.0305C169.675 79.2855 169.7 79.5555 169.755 79.8555C169.81 80.1455 169.91 80.4155 170.065 80.6755C170.215 80.9355 170.425 81.1455 170.695 81.3105C170.965 81.4705 171.31 81.5505 171.745 81.5505C172.175 81.5505 172.53 81.4655 172.805 81.2955C173.08 81.1255 173.295 80.9055 173.45 80.6405C173.605 80.3705 173.72 80.0705 173.77 79.7205C173.835 79.3805 173.865 79.0255 173.865 78.6605V69.7805H173.87Z" fill="white"/>
<path d="M188.174 70.8006L186.749 74.5206L184.889 78.8956H183.934L182.074 74.5206L180.649 70.8006H180.544V83.2606H178.504V65.2656H180.574L182.719 70.8706L184.374 75.2656H184.454L186.164 70.7456L188.254 65.2656H190.349V83.2606H188.309V70.8006H188.174Z" fill="white"/>
<path d="M135.475 91.5352C135.74 91.5352 135.925 91.6052 136.04 91.7452C136.155 91.8852 136.215 92.0702 136.215 92.3002L135.835 92.3652C135.84 92.2202 135.81 92.1002 135.755 92.0152C135.695 91.9252 135.605 91.8902 135.47 91.8902C135.39 91.8902 135.33 91.9102 135.28 91.9402C135.23 91.9752 135.195 92.0252 135.165 92.0752C135.14 92.1252 135.12 92.1802 135.115 92.2452C135.1 92.3102 135.1 92.3702 135.1 92.4302V94.1102C135.1 94.1602 135.1 94.2152 135.115 94.2702C135.12 94.3252 135.14 94.3752 135.165 94.4202C135.195 94.4652 135.23 94.5052 135.28 94.5402C135.325 94.5702 135.385 94.5852 135.465 94.5852C135.585 94.5852 135.68 94.5452 135.735 94.4752C135.8 94.3902 135.83 94.2752 135.835 94.1102L136.22 94.1752C136.215 94.4202 136.15 94.6052 136.025 94.7352C135.905 94.8702 135.715 94.9402 135.47 94.9402C135.22 94.9402 135.035 94.8652 134.905 94.7252C134.78 94.5902 134.715 94.3902 134.715 94.1352V92.4852C134.715 92.3652 134.725 92.2452 134.745 92.1352C134.765 92.0252 134.81 91.9202 134.86 91.8302C134.915 91.7402 134.99 91.6752 135.095 91.6202C135.195 91.5602 135.32 91.5352 135.475 91.5352Z" fill="white"/>
<path d="M137.311 91.9104V94.9054H136.931V91.9104H136.366V91.5654H137.876V91.9104H137.311Z" fill="white"/>
<path d="M138.835 91.5654C139.01 91.5654 139.145 91.5854 139.25 91.6354C139.36 91.6804 139.45 91.7404 139.51 91.8254C139.575 91.9154 139.62 92.0154 139.64 92.1354C139.67 92.2654 139.685 92.4004 139.685 92.5604C139.685 92.6954 139.67 92.8304 139.65 92.9504C139.625 93.0704 139.585 93.1804 139.525 93.2654C139.455 93.3604 139.37 93.4304 139.255 93.4804C139.145 93.5354 138.995 93.5604 138.815 93.5604H138.535V94.9054H138.155V91.5654H138.835ZM138.535 93.2104H138.8C138.915 93.2104 139.005 93.1904 139.075 93.1554C139.145 93.1204 139.195 93.0754 139.235 93.0154C139.275 92.9604 139.295 92.8954 139.305 92.8154C139.315 92.7404 139.325 92.6604 139.325 92.5704C139.325 92.4754 139.315 92.3954 139.305 92.3104C139.295 92.2304 139.27 92.1654 139.235 92.1054C139.2 92.0404 139.145 92.0004 139.08 91.9654C139.01 91.9304 138.92 91.9104 138.805 91.9104H138.535V93.2104Z" fill="white"/>
<path d="M141.56 94.0052C141.56 94.3052 141.5 94.5302 141.385 94.6952C141.27 94.8552 141.065 94.9402 140.785 94.9402C140.51 94.9402 140.315 94.8602 140.2 94.7102C140.085 94.5602 140.025 94.3652 140.025 94.1202V92.4752C140.025 92.3552 140.035 92.2402 140.055 92.1302C140.075 92.0202 140.11 91.9152 140.17 91.8252C140.225 91.7352 140.305 91.6702 140.4 91.6152C140.505 91.5602 140.63 91.5352 140.79 91.5352C140.96 91.5352 141.09 91.5602 141.19 91.6052C141.295 91.6502 141.365 91.7152 141.425 91.8002C141.475 91.8852 141.515 91.9802 141.535 92.0902C141.55 92.2052 141.555 92.3302 141.555 92.4602L141.56 94.0052ZM141.18 92.4002C141.18 92.3452 141.175 92.2902 141.165 92.2202C141.165 92.1652 141.145 92.1102 141.12 92.0602C141.095 92.0102 141.055 91.9702 141 91.9402C140.945 91.9102 140.88 91.8902 140.79 91.8902C140.695 91.8902 140.62 91.9152 140.57 91.9602C140.52 92.0052 140.48 92.0602 140.455 92.1252C140.43 92.1852 140.415 92.2552 140.41 92.3252C140.405 92.4002 140.4 92.4552 140.4 92.5052V94.1202C140.4 94.1702 140.41 94.2202 140.415 94.2752C140.425 94.3252 140.445 94.3752 140.475 94.4202C140.5 94.4752 140.54 94.5102 140.59 94.5402C140.64 94.5702 140.7 94.5852 140.78 94.5852C140.86 94.5852 140.93 94.5702 140.98 94.5402C141.03 94.5002 141.075 94.4602 141.095 94.4152C141.13 94.3702 141.15 94.3102 141.16 94.2452C141.17 94.1852 141.175 94.1202 141.175 94.0552L141.18 92.4002Z" fill="white"/>
<path d="M143.225 92.5604L142.38 94.9054H142.025V91.5654H142.39V93.9254L142.41 93.9354L143.245 91.5654H143.605V94.9054H143.235V92.5604H143.225Z" fill="white"/>
<path d="M144.816 91.9104V94.9054H144.436V91.9104H143.871V91.5654H145.386V91.9104H144.816Z" fill="white"/>
<path d="M145.665 94.9054V91.5654H147.095V91.9104H146.045V93.0304H146.96V93.3804H146.04V94.5504H147.09V94.9004H145.665V94.9054Z" fill="white"/>
<path d="M147.949 93.2304C147.949 93.5404 147.939 93.7854 147.914 93.9854C147.894 94.1904 147.854 94.3554 147.809 94.4854C147.759 94.6104 147.694 94.7204 147.609 94.7954C147.529 94.8704 147.434 94.9404 147.314 95.0004L147.139 94.7254C147.209 94.6804 147.274 94.6254 147.334 94.5754C147.394 94.5254 147.439 94.4554 147.484 94.3704C147.524 94.2804 147.554 94.1754 147.579 94.0404C147.599 93.9104 147.609 93.7354 147.609 93.5254V91.5654H148.999V94.9054H148.619V91.9104H147.949V93.2304Z" fill="white"/>
<path d="M149.5 94.9054V91.5654H149.875V92.9154H150.155C150.335 92.9154 150.485 92.9354 150.6 92.9854C150.71 93.0354 150.805 93.1004 150.865 93.1904C150.93 93.2804 150.97 93.3754 150.995 93.5004C151.015 93.6154 151.03 93.7454 151.03 93.8854C151.03 94.0404 151.02 94.1854 150.99 94.3104C150.97 94.4304 150.925 94.5454 150.86 94.6304C150.8 94.7204 150.71 94.7854 150.605 94.8354C150.495 94.8854 150.355 94.9104 150.185 94.9104L149.5 94.9054ZM149.875 94.5454H150.15C150.265 94.5454 150.355 94.5254 150.42 94.4954C150.485 94.4604 150.535 94.4154 150.575 94.3604C150.61 94.2954 150.635 94.2304 150.645 94.1504C150.65 94.0654 150.66 93.9804 150.66 93.8904C150.66 93.8004 150.65 93.7254 150.645 93.6504C150.635 93.5754 150.61 93.5104 150.57 93.4504C150.535 93.3904 150.48 93.3504 150.415 93.3204C150.345 93.2804 150.25 93.2654 150.135 93.2654H149.875V94.5454Z" fill="white"/>
<path d="M152.56 94.9054V93.3604H151.785V94.9054H151.405V91.5654H151.785V93.0304H152.56V91.5654H152.94V94.9054H152.56Z" fill="white"/>
<path d="M154.67 94.9054L154.52 94.1604H153.77L153.62 94.9054H153.26L153.975 91.5654H154.33L155.045 94.9054H154.67ZM154.135 92.2554L153.995 93.0304L153.84 93.8054H154.45L154.29 93.0154L154.155 92.2554H154.135Z" fill="white"/>
<path d="M155.26 94.9056L155.465 93.8656C155.485 93.7456 155.525 93.6306 155.57 93.5356C155.615 93.4306 155.69 93.3555 155.785 93.2855C155.7 93.2655 155.635 93.2305 155.58 93.1805C155.525 93.1305 155.48 93.0755 155.455 93.0105C155.425 92.9505 155.395 92.8805 155.39 92.8005C155.375 92.7205 155.37 92.6406 155.37 92.5456C155.37 92.2255 155.435 91.9856 155.57 91.8156C155.7 91.6455 155.91 91.5605 156.185 91.5605H156.915V94.9005H156.535V93.4055H156.335C156.29 93.4055 156.245 93.4105 156.2 93.4255C156.145 93.4355 156.095 93.4605 156.05 93.4955C156.005 93.5355 155.965 93.5855 155.92 93.6505C155.88 93.7205 155.85 93.8105 155.83 93.9305L155.655 94.9005H155.26V94.9056ZM155.74 92.5405C155.74 92.8955 155.895 93.0755 156.205 93.0755H156.53V91.9105H156.24C156.14 91.9105 156.06 91.9305 155.995 91.9605C155.935 91.9955 155.88 92.0405 155.845 92.0905C155.805 92.1505 155.78 92.2155 155.765 92.2905C155.75 92.3755 155.74 92.4605 155.74 92.5405Z" fill="white"/>
<path d="M158.336 94.9054V91.5654H158.716V93.0154H158.891C158.936 93.0154 158.991 93.0104 159.041 93.0054C159.096 92.9954 159.146 92.9704 159.196 92.9354C159.246 92.9054 159.296 92.8554 159.336 92.7904C159.376 92.7254 159.411 92.6454 159.436 92.5254L159.671 91.5654H160.016L159.796 92.5404C159.761 92.7054 159.706 92.8454 159.636 92.9554C159.566 93.0604 159.481 93.1354 159.391 93.1704C159.511 93.2154 159.606 93.2954 159.676 93.4054C159.741 93.5204 159.791 93.6654 159.826 93.8304L160.066 94.9054H159.691L159.476 93.8954C159.451 93.7904 159.416 93.6954 159.376 93.6254C159.336 93.5554 159.291 93.5054 159.241 93.4654C159.191 93.4304 159.136 93.4054 159.081 93.3954C159.026 93.3804 158.971 93.3754 158.911 93.3754H158.716V94.9054H158.336Z" fill="white"/>
<path d="M161.875 94.0052C161.875 94.3052 161.815 94.5302 161.7 94.6952C161.59 94.8552 161.39 94.9402 161.105 94.9402C160.83 94.9402 160.63 94.8602 160.515 94.7102C160.4 94.5602 160.345 94.3652 160.345 94.1202V92.4752C160.345 92.3552 160.355 92.2402 160.375 92.1302C160.395 92.0202 160.435 91.9152 160.49 91.8252C160.545 91.7352 160.62 91.6702 160.72 91.6152C160.82 91.5602 160.95 91.5352 161.11 91.5352C161.275 91.5352 161.41 91.5602 161.51 91.6052C161.61 91.6502 161.685 91.7152 161.74 91.8002C161.795 91.8852 161.835 91.9802 161.85 92.0902C161.865 92.2052 161.875 92.3302 161.875 92.4602V94.0052ZM161.5 92.4002C161.5 92.3452 161.49 92.2902 161.485 92.2202C161.475 92.1652 161.46 92.1102 161.435 92.0602C161.405 92.0102 161.37 91.9702 161.32 91.9402C161.265 91.9102 161.2 91.8902 161.11 91.8902C161.015 91.8902 160.94 91.9152 160.89 91.9602C160.835 92.0052 160.8 92.0602 160.775 92.1252C160.75 92.1852 160.735 92.2552 160.725 92.3252C160.72 92.4002 160.72 92.4552 160.72 92.5052V94.1202C160.72 94.1702 160.725 94.2202 160.735 94.2752C160.745 94.3252 160.765 94.3752 160.795 94.4202C160.82 94.4752 160.865 94.5102 160.91 94.5402C160.96 94.5702 161.025 94.5852 161.105 94.5852C161.19 94.5852 161.245 94.5702 161.3 94.5402C161.355 94.5002 161.39 94.4602 161.42 94.4152C161.45 94.3702 161.47 94.3102 161.48 94.2452C161.49 94.1852 161.5 94.1202 161.5 94.0552V92.4002Z" fill="white"/>
<path d="M164.149 92.5904L163.884 93.2804L163.534 94.0954H163.364L163.019 93.2804L162.754 92.5904H162.734V94.9054H162.354V91.5654H162.739L163.134 92.6104L163.444 93.4204H163.459L163.774 92.5804L164.164 91.5654H164.549V94.9054H164.174V92.5904H164.149Z" fill="white"/>
<path d="M166.16 94.9054V91.9104H165.435V94.9054H165.06V91.5654H166.535V94.9054H166.16Z" fill="white"/>
<path d="M168.266 94.9054L168.111 94.1604H167.371L167.226 94.9054H166.861L167.576 91.5654H167.931L168.651 94.9054H168.266ZM167.731 92.2554L167.591 93.0304L167.441 93.8054H168.051L167.886 93.0154L167.756 92.2554H167.731Z" fill="white"/>
<path d="M170.101 94.9054V93.3604H169.321V94.9054H168.946V91.5654H169.321V93.0304H170.101V91.5654H170.476V94.9054H170.101Z" fill="white"/>
<path d="M172.175 92.5604L171.335 94.9054H170.98V91.5654H171.34V93.9254L171.36 93.9354L172.195 91.5654H172.555V94.9054H172.19V92.5604H172.175Z" fill="white"/>
<path d="M172.97 94.9056L173.165 93.8656C173.195 93.7456 173.23 93.6306 173.27 93.5356C173.32 93.4306 173.385 93.3555 173.485 93.2855C173.4 93.2655 173.335 93.2305 173.285 93.1805C173.225 93.1305 173.18 93.0755 173.155 93.0105C173.115 92.9505 173.1 92.8805 173.085 92.8005C173.07 92.7205 173.065 92.6406 173.065 92.5456C173.065 92.2255 173.135 91.9856 173.265 91.8156C173.4 91.6455 173.6 91.5605 173.875 91.5605H174.605V94.9005H174.23V93.4055H174.03C173.985 93.4055 173.94 93.4105 173.895 93.4255C173.84 93.4355 173.795 93.4605 173.75 93.4955C173.705 93.5355 173.66 93.5855 173.625 93.6505C173.59 93.7155 173.55 93.8105 173.535 93.9305L173.355 94.9005H172.97V94.9056ZM173.445 92.5405C173.445 92.8955 173.595 93.0755 173.905 93.0755H174.23V91.9105H173.94C173.84 91.9105 173.765 91.9305 173.695 91.9605C173.63 91.9955 173.585 92.0405 173.545 92.0905C173.505 92.1505 173.48 92.2155 173.46 92.2905C173.45 92.3755 173.445 92.4605 173.445 92.5405Z" fill="white"/>
</svg>
