<svg width="151" height="27" viewBox="0 0 151 27" fill="none" xmlns="http://www.w3.org/2000/svg">
<g clip-path="url(#clip0_9_49)">
<path d="M7.12458 26.1211V4.48395H3.65373V26.1211H0V0.878967H7.12458C9.1337 0.878967 10.7783 2.57486 10.7783 4.48395V26.1211" fill="#03185B"/>
<path d="M13.7005 4.48395C13.7005 2.57365 15.3451 0.878967 17.3543 0.878967H20.8251C22.8355 0.878967 24.4788 2.57486 24.4788 4.48395V12.2741C24.4788 13.7883 22.7986 15.0869 20.8251 15.0869H17.3543V22.5149H20.8251V18.9087H24.4788V22.5149C24.4715 23.4691 24.0841 24.3821 23.4005 25.0568C22.7169 25.7315 21.7919 26.1138 20.8251 26.1211H17.3543C16.388 26.1122 15.4639 25.7295 14.7806 25.0551C14.0973 24.3807 13.7095 23.4686 13.7005 22.5149V4.48395ZM17.3543 4.48395V12.2741H20.8251V4.48395H17.3543Z" fill="#03185B"/>
<path d="M27.4023 26.1211V0.878967H31.056V11.9495H34.5269V0.878967H38.1806V26.1211H34.5269V14.7623H31.056V26.1211H27.4023Z" fill="#03185B"/>
<path d="M48.2274 0.878967C50.2365 0.878967 51.8811 2.57486 51.8811 4.48395V22.5149C51.8738 23.4691 51.4864 24.3821 50.8028 25.0568C50.1192 25.7315 49.1942 26.1138 48.2274 26.1211H44.7566C43.7903 26.1122 42.8662 25.7295 42.1829 25.0551C41.4996 24.3807 41.1118 23.4686 41.1028 22.5149V4.48395C41.1028 2.57365 42.7474 0.878967 44.7566 0.878967H48.2274ZM48.2274 22.5149V4.48395H44.7566V22.5149H48.2274Z" fill="#03185B"/>
<path d="M61.9292 4.48395H58.4583V26.1211H54.8046V0.878967H61.9365C62.9036 0.878967 63.8311 1.25814 64.5149 1.93307C65.1987 2.608 65.5829 3.5234 65.5829 4.47789V26.1211H61.9292V4.48395Z" fill="#03185B"/>
<path d="M70.9168 0.878967H74.5705L78.0782 26.1211H74.7534L72.7431 11.6612L70.7339 26.1211H67.4091L70.9168 0.878967Z" fill="#03185B"/>
<path d="M90.6828 26.1211H83.5643C82.5981 26.1122 81.6739 25.7295 80.9907 25.0551C80.3074 24.3807 79.9196 23.4686 79.9106 22.5149V14.7623C79.9106 13.2117 81.5908 11.9495 83.5643 11.9495H87.0352V4.48395H83.5643V8.09014H79.9106V4.48395C79.9106 2.57365 81.5552 0.878967 83.5643 0.878967H87.0352C89.0443 0.878967 90.6889 2.57486 90.6889 4.48395L90.6828 26.1211ZM87.029 22.5149V14.7623H83.5582V22.5149H87.029Z" fill="#03185B"/>
<path d="M97.26 22.5149H101.095V16.4206H104.749V22.5149C104.742 23.4691 104.354 24.3821 103.671 25.0568C102.987 25.7315 102.062 26.1138 101.095 26.1211H97.26C95.2496 26.1211 93.6062 24.4252 93.6062 22.5149V4.48395C93.6062 2.57365 95.2496 0.878967 97.26 0.878967H101.095C102.062 0.886251 102.987 1.26836 103.67 1.94282C104.354 2.61728 104.741 3.52999 104.749 4.48395V10.5782H101.095V4.48395H97.26V22.5149Z" fill="#03185B"/>
<path d="M113.883 4.48395V26.1211H110.234V4.48395H106.58V0.878967H117.541V4.48395H113.883Z" fill="#03185B"/>
<path d="M150.541 1V11H145.541V6H140.541V1H150.541Z" fill="#03185B"/>
<path d="M150.541 16V26H140.541V21H145.541V16H150.541Z" fill="#03185B"/>
<path d="M145.541 6H140.541V11L145.541 11V6Z" fill="#4666AF"/>
<path d="M145.541 16H140.541V21H145.541V16Z" fill="#4666AF"/>
<path d="M135.541 5.99999H130.541V11H135.541V5.99999Z" fill="#4666AF"/>
<path d="M135.541 1L135.541 5.99999H130.541V11L125.541 11V1H135.541Z" fill="#03185B"/>
<path d="M135.541 16H130.541V21H135.541V16Z" fill="#4666AF"/>
<path d="M135.541 21L135.541 26H125.541V16H130.541V21H135.541Z" fill="#03185B"/>
<path d="M145.541 11V16H140.541V21H135.541V16H130.541V11H135.541V5.99999L140.541 6V11L145.541 11Z" fill="#D3EBF4"/>
</g>
<defs>
<clipPath id="clip0_9_49">
<rect width="150.541" height="25.2421" fill="white" transform="translate(0 0.878967)"/>
</clipPath>
</defs>
</svg>
