<svg width="310" height="100" viewBox="0 0 310 100" fill="none" xmlns="http://www.w3.org/2000/svg">
<rect width="310" height="100" fill="white"/>
<path d="M143.759 59.9494C135.896 60.2146 128.162 62.0284 121 65.2868V30.7747C121.242 30.7629 121.457 30.7412 121.672 30.7412L138.37 30.7649H139.111V29.8641C138.323 29.7656 137.497 29.8759 136.65 29.7951C136.589 28.8313 136.63 27.8931 136.622 26.9175C137.47 26.7834 138.29 26.9313 139.121 26.8209V25.4727C138.724 25.4247 138.323 25.4121 137.923 25.4353C137.515 25.4254 137.107 25.4353 136.709 25.4353C136.595 25.0411 136.587 22.7311 136.709 22.264H139.115V21.1089H136.731C136.6 20.7463 136.571 18.5467 136.679 17.9337C137.077 17.8931 137.477 17.8832 137.876 17.9041C138.27 17.8923 138.686 17.9041 139.121 17.8923V16.3332H136.723C136.596 15.9233 136.583 13.7709 136.697 13.2762H139.133C139.133 12.6849 139.145 12.135 139.147 11.589C139.149 11.0431 139.147 10.4853 139.147 9.9334V5H151.71C151.807 5.35478 151.84 22.5419 151.742 23.2494H143.793C143.726 24.4025 143.769 25.5003 143.761 26.6001C143.753 27.7 143.761 28.8392 143.761 29.9508V59.9494H143.759ZM123.511 38.5503C123.485 38.6805 123.467 38.8121 123.456 38.9445C123.456 40.5791 123.456 42.2144 123.456 43.8503C123.464 43.979 123.483 44.1068 123.511 44.2327C124.14 44.3214 125.659 44.2997 125.989 44.2051C126.099 43.5586 126.075 38.9563 125.953 38.5483L123.511 38.5503ZM128.541 44.276C129.424 44.276 130.26 44.3293 131.103 44.2366V38.5306C130.249 38.4911 129.394 38.503 128.541 38.5661V44.276ZM133.65 44.1972H136.177C136.177 42.307 136.198 40.4424 136.163 38.5917C135.599 38.4734 134.02 38.4931 133.658 38.6134L133.65 44.1972ZM131.103 56.4706C131.103 54.6967 131.103 52.9819 131.103 51.279C130.595 51.145 128.935 51.1548 128.571 51.279C128.472 51.8486 128.502 56.1138 128.616 56.4726L131.103 56.4706ZM133.654 56.4706C134.494 56.5171 135.337 56.5131 136.177 56.4588C136.188 56.2498 136.206 56.0803 136.206 55.9108C136.206 55.0771 136.206 54.2434 136.206 53.4096C136.206 52.7947 136.206 52.1817 136.206 51.5687C136.206 51.2376 136.167 51.1942 135.863 51.1903C135.203 51.1903 134.543 51.1903 133.88 51.1903C133.803 51.2034 133.728 51.2279 133.658 51.2632L133.654 56.4706ZM123.511 56.443C124.163 56.5553 125.679 56.5258 125.995 56.4075C126.105 55.765 126.071 51.5865 125.953 51.2396C125.352 51.141 123.856 51.1706 123.511 51.2908V56.443ZM128.636 45.1413C128.519 45.5355 128.508 49.8717 128.626 50.3881C129.439 50.4383 130.255 50.4324 131.068 50.3704C131.174 49.582 131.135 45.4783 131.023 45.1413H128.636ZM133.656 50.3329H136.127C136.248 49.8323 136.232 45.4921 136.114 45.1255H133.656V50.3329ZM123.452 45.1275C123.452 46.8758 123.452 48.5984 123.452 50.3684C124.337 50.3684 125.159 50.3979 125.975 50.3467V45.1275H123.452ZM125.973 37.6693C126.111 37.078 126.075 33.2168 125.92 32.8324C125.263 32.8324 124.587 32.8324 123.913 32.8324C123.789 32.8324 123.665 32.8502 123.55 32.86C123.412 33.2877 123.409 37.2435 123.55 37.6693H125.973ZM136.175 37.6693C136.185 37.4722 136.204 37.3125 136.204 37.145C136.204 35.8993 136.204 34.6536 136.204 33.4001C136.204 33.3055 136.204 33.203 136.204 33.1163C136.21 33.0769 136.206 33.0369 136.193 32.9993C136.18 32.9618 136.159 32.9277 136.13 32.9C136.102 32.8722 136.067 32.8514 136.03 32.8394C135.992 32.8273 135.952 32.8242 135.913 32.8305C135.203 32.8305 134.493 32.8423 133.786 32.8541C133.746 32.8541 133.705 32.8975 133.662 32.9231V37.6535L136.175 37.6693ZM128.553 37.6555H131.064C131.178 37.1765 131.164 33.2601 131.046 32.8581C130.216 32.8118 129.383 32.8118 128.553 32.8581V37.6555Z" fill="#1B4F9B"/>
<path d="M145.19 46.8422V45.1708C145.417 45.1708 145.616 45.1471 145.815 45.1471H156.046C156.186 44.7332 156.218 41.6703 156.094 41.1598H145.159V39.926C146.069 39.8452 146.982 39.8984 147.89 39.8885C148.799 39.8787 149.72 39.8885 150.634 39.8885H156.177C156.188 38.562 156.177 37.2789 156.177 35.9327C154.921 35.9111 153.713 35.9327 152.507 35.9229H145.155C145.111 35.3577 145.099 34.7904 145.119 34.2239C145.316 34.2239 145.5 34.2042 145.679 34.2042H156.113C156.129 34.0071 156.153 33.8494 156.153 33.6957C156.153 32.86 156.153 32.0249 156.153 31.1905C156.153 30.684 156.135 30.6682 155.609 30.6682H145.145V28.9968C146.351 28.9968 147.559 28.9968 148.766 28.9968H156.027C156.184 28.6203 156.21 25.9654 156.066 25.4214C155.881 25.4096 155.682 25.3899 155.475 25.3899H145.151V24.2526C145.366 24.2388 145.58 24.2132 145.793 24.2132L156.478 24.1955L162.249 24.1797C162.434 24.1797 162.62 24.1974 162.829 24.2093V59.7936C162.519 59.9198 160.331 59.9651 159.582 59.8547C159.529 59.5689 159.338 59.498 159.046 59.4999C155.514 59.4999 151.982 59.4999 148.452 59.4999C148.358 59.4999 148.255 59.4999 148.147 59.5177L147.95 59.9414H145.149V50.3782C146.369 50.3782 147.575 50.3782 148.781 50.3782H156.044C156.19 49.984 156.22 47.3487 156.088 46.8442L145.19 46.8422ZM157.771 41.2189V42.4626C157.771 43.2195 157.771 43.9764 157.771 44.7313C157.771 45.1018 157.812 45.1255 158.181 45.1432C158.623 45.1432 159.064 45.1432 159.506 45.1432H160.274C160.4 44.6504 160.392 41.5954 160.274 41.215L157.771 41.2189ZM157.868 35.9584C157.732 36.3821 157.736 39.4825 157.868 39.8846C158.668 39.8846 159.478 39.9082 160.276 39.8668C160.387 39.2282 160.359 36.2993 160.247 35.9584H157.868ZM160.337 56.0211V52.1304H157.858C157.741 52.635 157.757 55.6368 157.876 56.0211H160.337ZM160.318 30.7234C160.194 30.6964 160.069 30.6779 159.943 30.6682C159.352 30.6682 158.78 30.6682 158.199 30.6682C157.805 30.6682 157.777 30.7057 157.775 31.1137C157.775 32.0085 157.775 32.9053 157.775 33.8021C157.784 33.924 157.801 34.0452 157.826 34.1648H160.318V30.7234ZM160.335 50.3348V46.8856C160.168 46.8698 160.03 46.8461 159.892 46.8461C159.358 46.8461 158.822 46.8461 158.287 46.8461C157.795 46.8461 157.775 46.8658 157.773 47.3468C157.773 48.1982 157.773 49.0484 157.773 49.8972C157.773 50.0352 157.797 50.1732 157.812 50.3368L160.335 50.3348Z" fill="#1B4F9B"/>
<path d="M189.577 67.0513C189.122 66.7517 188.747 66.4896 188.361 66.2511C186.335 65.0114 184.151 64.1303 181.904 63.3774C179.62 62.6124 177.274 62.0518 174.891 61.702C174.497 61.6449 174.103 61.6173 173.708 61.5739C173.555 61.5562 173.401 61.5266 173.184 61.4931V11.1105C174.077 11.0869 174.997 11.0967 175.987 11.0908C176.024 12.2163 175.999 13.3121 176.005 14.408C176.01 15.5039 176.005 16.5761 176.005 17.672V40.7464C176.257 40.7642 176.468 40.7937 176.681 40.7937H189.567L189.577 67.0513ZM184.452 46.8506C183.774 46.825 183.108 46.8171 182.456 46.8506C182.328 47.3847 182.345 54.7858 182.469 55.1623H184.425C184.539 54.7425 184.567 47.7592 184.452 46.8506ZM187.88 46.8506C187.184 46.8053 186.486 46.8092 185.791 46.8624V55.0854C186.271 55.2096 187.511 55.1958 187.88 55.0618V46.8506ZM179.069 55.111C179.592 55.2062 180.128 55.1948 180.646 55.0775C180.745 54.4764 180.711 47.2172 180.601 46.8545H179.081C178.932 47.296 178.933 54.7208 179.069 55.1189V55.111ZM184.482 42.0157H182.678C182.46 42.0157 182.375 42.136 182.375 42.3449C182.375 43.4467 182.375 44.5485 182.375 45.6483C182.375 45.8947 182.499 45.9814 182.728 45.9794C183.232 45.9794 183.735 45.9794 184.239 45.9794C184.323 45.9681 184.405 45.9483 184.484 45.9203L184.482 42.0157ZM184.498 59.9518C184.521 58.6076 184.535 57.3284 184.498 56H182.477C182.33 56.4651 182.335 59.5477 182.477 59.9518H184.498ZM187.848 59.9518C187.955 59.2698 187.925 56.404 187.815 56.0394H185.789V59.9518H187.848ZM185.793 42.0552V45.9558C186.495 46.0152 187.201 46.0086 187.902 45.9361C187.902 44.6194 187.902 43.354 187.902 42.0552H185.793ZM180.632 59.9794C180.739 59.2659 180.709 56.3843 180.599 56.0236H179.022C179.006 56.2207 178.981 56.3804 178.981 56.5479C178.981 57.5097 178.981 58.4716 178.981 59.4334C178.981 59.528 178.981 59.6305 178.981 59.7173C178.978 59.7529 178.982 59.7888 178.995 59.8224C179.007 59.8559 179.027 59.8863 179.053 59.9112C179.078 59.9361 179.109 59.955 179.143 59.9665C179.177 59.9779 179.213 59.9817 179.249 59.9774C179.704 59.9794 180.155 59.9774 180.632 59.9774V59.9794ZM180.658 42.0433C180.264 42.0433 179.87 42.0197 179.475 42.0217C178.987 42.0217 178.969 42.0414 178.967 42.5282C178.967 43.5137 178.967 44.513 178.967 45.5064C178.967 45.5852 178.967 45.6621 178.977 45.7409C178.975 45.7728 178.98 45.8047 178.992 45.8344C179.003 45.8642 179.021 45.8911 179.044 45.9135C179.066 45.9359 179.094 45.9532 179.124 45.9642C179.154 45.9752 179.185 45.9797 179.217 45.9774C179.686 45.9774 180.154 45.9774 180.65 45.9774L180.658 42.0433Z" fill="#1B4F9B"/>
<path d="M168.418 11.0908H171.196C171.304 11.4495 171.351 59.8099 171.253 60.7441C170.918 60.8368 169.016 60.8585 168.418 60.7698V11.0908Z" fill="#1B4F9B"/>
<path d="M166.631 59.9459H163.787V11.1519C164.195 11.0396 166.173 11.0337 166.631 11.1519V59.9459Z" fill="#1B4F9B"/>
<path d="M146.68 82.4105V72.8236C146.83 72.8118 146.952 72.794 147.074 72.794C149.375 72.794 151.677 72.7763 153.973 72.8078C154.538 72.8228 155.098 72.9137 155.638 73.0779C156.019 73.1709 156.358 73.3862 156.604 73.6906C156.85 73.995 156.989 74.3718 157 74.7631C157.033 75.2177 157.021 75.6744 156.967 76.127C156.948 76.357 156.865 76.5771 156.729 76.763C156.592 76.9488 156.406 77.093 156.192 77.1795C156.121 77.211 156.052 77.2524 155.985 77.2899C155.971 77.2899 155.966 77.3135 155.93 77.3628C156.078 77.4397 156.22 77.5185 156.366 77.5836C156.644 77.6989 156.886 77.8886 157.064 78.1319C157.242 78.3753 157.349 78.6629 157.375 78.9633C157.461 79.5411 157.434 80.1301 157.296 80.6977C157.223 81.0393 157.06 81.3552 156.824 81.6121C156.587 81.8691 156.286 82.0577 155.952 82.1582C155.579 82.2851 155.191 82.36 154.799 82.381C153.76 82.4164 152.719 82.4066 151.681 82.4086C150.198 82.4086 148.724 82.4086 147.236 82.4086L146.68 82.4105ZM148.959 78.3818V80.6228C149.128 80.6347 149.264 80.6544 149.402 80.6544H153.935C154.061 80.6574 154.187 80.6534 154.312 80.6425C154.88 80.5775 155.124 80.3232 155.153 79.7595C155.166 79.5712 155.166 79.3822 155.153 79.1939C155.158 79.0019 155.088 78.8156 154.959 78.6736C154.83 78.5315 154.651 78.4447 154.46 78.4311C154.181 78.3835 153.899 78.3584 153.616 78.3562C152.248 78.3562 150.88 78.3562 149.512 78.3562C149.335 78.3483 149.166 78.368 148.959 78.3818ZM148.927 76.7143C149.189 76.7262 149.375 76.7419 149.56 76.7439H152.483C152.877 76.7439 153.271 76.7439 153.665 76.7439C153.823 76.7561 153.982 76.7314 154.129 76.6719C154.275 76.6124 154.406 76.5197 154.511 76.401C154.654 76.2219 154.747 76.0076 154.779 75.7805C154.811 75.5534 154.782 75.3218 154.694 75.11C154.529 74.6547 154.136 74.5522 153.709 74.5443H149.453C149.3 74.5443 149.148 74.56 148.974 74.5699C148.953 74.668 148.938 74.7674 148.929 74.8675C148.925 75.4588 148.927 76.0541 148.927 76.7143Z" fill="#1B4F9B"/>
<path d="M139.685 85.3775H140.079C142.35 85.3775 144.612 85.3676 146.887 85.3873C147.375 85.3941 147.86 85.4556 148.334 85.5706C149.435 85.8328 149.979 86.5384 149.993 87.6717C150 88.0176 149.98 88.3636 149.934 88.7065C149.913 88.9441 149.825 89.1709 149.68 89.3606C149.535 89.5504 149.34 89.6953 149.116 89.7787C149.028 89.8234 148.943 89.8727 148.86 89.9265C149.031 90.0152 149.156 90.0881 149.288 90.1453C149.57 90.2522 149.818 90.435 150.003 90.6736C150.189 90.9121 150.304 91.1972 150.338 91.4974C150.433 92.0876 150.408 92.6906 150.267 93.2713C150.19 93.6198 150.02 93.941 149.775 94.2012C149.531 94.4613 149.221 94.6507 148.878 94.7495C148.505 94.8735 148.116 94.9438 147.723 94.9585C145.123 94.9821 142.523 94.9782 139.921 94.9821C139.846 94.9782 139.771 94.9689 139.697 94.9545C139.608 94.6116 139.586 85.9688 139.685 85.3775ZM141.906 93.1964C142.037 93.2174 142.168 93.2312 142.3 93.2378C143.828 93.2378 145.356 93.226 146.885 93.2378C148.143 93.2378 148.172 92.6465 148.133 91.7832C148.129 91.752 148.124 91.7211 148.117 91.6906C148.097 91.5165 148.018 91.3543 147.894 91.2308C147.77 91.1072 147.607 91.0295 147.433 91.0106C147.185 90.9657 146.934 90.9413 146.682 90.9376C145.265 90.9376 143.848 90.9376 142.431 90.9376C142.263 90.9376 142.096 90.9652 141.906 90.983V93.1964ZM141.879 87.1238C141.879 87.7663 141.869 88.3458 141.879 88.9233C141.879 89.286 141.92 89.3175 142.297 89.3175C142.975 89.3175 143.653 89.3175 144.329 89.3175C145.101 89.3175 145.874 89.3175 146.645 89.3175C147.191 89.3175 147.512 89.0849 147.671 88.6414C147.985 87.7683 147.543 87.1336 146.613 87.1179C146.566 87.1179 146.518 87.1179 146.471 87.1179H141.879V87.1238Z" fill="#1B4F9B"/>
<path d="M176.176 82.3612V72.8215H178.37C178.387 73.0029 178.423 73.198 178.423 73.3912C178.423 75.5356 178.423 77.6794 178.423 79.8225V80.4651C178.774 80.6622 178.916 80.4414 179.069 80.2423C179.989 79.044 180.913 77.8456 181.841 76.6473C182.735 75.4863 183.638 74.3333 184.521 73.1625C184.6 73.0387 184.71 72.9383 184.841 72.8721C184.972 72.8058 185.118 72.7761 185.264 72.7861C186.25 72.8078 187.22 72.7861 188.195 72.7861H188.605C188.708 73.1665 188.729 81.8034 188.631 82.3691H186.463C186.463 82.1857 186.443 82.0024 186.443 81.8211V74.7255C186.403 74.6911 186.356 74.6659 186.305 74.652C186.254 74.638 186.2 74.6356 186.148 74.6448C186.096 74.6541 186.047 74.6748 186.004 74.7054C185.96 74.7361 185.925 74.7759 185.899 74.8221C185.633 75.1749 185.361 75.5218 185.095 75.8726C183.518 77.954 181.935 80.0367 180.347 82.1207C180.304 82.2041 180.24 82.2747 180.161 82.3249C180.082 82.3752 179.991 82.4033 179.897 82.4065C178.715 82.3947 177.532 82.4065 176.349 82.3947C176.291 82.3879 176.233 82.3767 176.176 82.3612Z" fill="#1B4F9B"/>
<path d="M139.348 82.4065C138.544 82.4065 137.739 82.4321 136.937 82.4065C136.42 82.3923 135.906 82.3263 135.402 82.2094C134.436 81.967 133.884 81.2948 133.687 80.335C133.619 79.9954 133.583 79.6503 133.579 79.3041C133.567 78.1866 133.565 77.0671 133.579 75.9534C133.584 75.5754 133.619 75.1983 133.685 74.826C133.882 73.6691 134.541 73.0186 135.701 72.8176C136.057 72.7546 136.418 72.721 136.78 72.7171C138.512 72.7171 140.247 72.7033 141.979 72.7171C142.403 72.7277 142.824 72.79 143.233 72.9023C143.604 72.9871 143.945 73.1729 144.218 73.4394C144.491 73.7058 144.685 74.0425 144.778 74.4121C144.893 74.7876 144.96 75.1765 144.975 75.5691C144.999 76.9383 144.999 78.3088 144.975 79.6806C144.959 80.073 144.892 80.4618 144.778 80.8376C144.699 81.1452 144.541 81.4269 144.319 81.655C144.098 81.8831 143.822 82.0497 143.516 82.1384C143.099 82.2762 142.666 82.3603 142.227 82.3887C141.268 82.4262 140.306 82.4006 139.346 82.4006L139.348 82.4065ZM139.332 80.5537C140.026 80.5537 140.712 80.5715 141.413 80.5537C142.269 80.5262 142.633 80.1733 142.732 79.3219C142.744 79.1961 142.748 79.0697 142.746 78.9434C142.746 78.0624 142.746 77.1794 142.746 76.2964C142.746 75.0093 142.289 74.5501 141.011 74.5442C139.86 74.5442 138.71 74.5442 137.56 74.5442C137.34 74.546 137.121 74.5698 136.906 74.6151C136.244 74.759 135.92 75.0626 135.897 75.7366C135.853 76.9646 135.855 78.1945 135.897 79.4224C135.916 80.0531 136.222 80.3488 136.839 80.4946C137.022 80.5357 137.21 80.5562 137.399 80.5557C138.039 80.5577 138.686 80.5537 139.33 80.5537H139.332Z" fill="#1B4F9B"/>
<path d="M162.249 93.2437V94.9604H152.339V85.4563C152.688 85.3577 161.114 85.3124 162.263 85.409C162.294 85.9801 162.294 86.5526 162.263 87.1237H154.582C154.53 87.86 154.53 88.599 154.582 89.3352C155.837 89.351 157.061 89.3352 158.283 89.3352H161.918C162.046 89.8439 162.064 90.3743 161.969 90.8903C161.8 90.9021 161.616 90.9238 161.435 90.9238H155.193C154.552 90.9238 154.552 90.9238 154.55 91.5821C154.55 91.9606 154.55 92.339 154.55 92.7174C154.55 92.8712 154.57 93.0229 154.584 93.2338L162.249 93.2437Z" fill="#1B4F9B"/>
<path d="M121.303 72.8145H123.509C123.578 73.4334 123.535 74.0424 123.543 74.6495C123.55 75.2565 123.543 75.8321 123.543 76.4234C124 76.5613 129.213 76.5692 129.726 76.4234V72.8125H131.947V82.3758H129.741C129.674 81.0552 129.757 79.7386 129.696 78.4338C129.282 78.3175 124.112 78.3037 123.586 78.416C123.574 78.5836 123.548 78.7669 123.548 78.9502C123.548 79.8963 123.548 80.8404 123.548 81.7864C123.548 81.9697 123.529 82.155 123.517 82.3777H121.303V72.8145Z" fill="#1B4F9B"/>
<path d="M164.076 85.399H166.285C166.348 86.0081 166.307 86.6013 166.315 87.1926C166.323 87.7839 166.315 88.3516 166.315 88.9843C166.816 88.9843 167.253 89.0059 167.695 88.9705C167.86 88.9249 168.01 88.8342 168.126 88.7083C169.335 87.6972 170.543 86.688 171.739 85.6612C171.848 85.5622 171.975 85.4857 172.113 85.436C172.252 85.3863 172.398 85.3643 172.545 85.3714C173.472 85.3892 174.4 85.3714 175.35 85.4187C174.455 86.2071 173.509 86.9187 172.591 87.6499C171.672 88.3811 170.736 89.1045 169.746 89.8791C171.7 91.584 173.651 93.214 175.626 94.9288C175.512 94.9583 175.396 94.9787 175.279 94.9899C174.43 94.9899 173.578 94.9899 172.727 94.9997C172.61 95.0033 172.494 94.983 172.386 94.9399C172.278 94.8968 172.18 94.832 172.098 94.7494C170.813 93.5668 169.512 92.3842 168.231 91.2016C168.109 91.0697 167.959 90.9672 167.791 90.9019C167.624 90.8367 167.444 90.8105 167.265 90.8252C166.985 90.8528 166.703 90.8252 166.376 90.8252C166.36 91.0952 166.337 91.31 166.337 91.5268C166.337 92.4709 166.337 93.417 166.337 94.3631C166.337 94.5464 166.317 94.7317 166.305 94.9544H164.098L164.076 85.399Z" fill="#1B4F9B"/>
<path d="M159.332 82.3718V72.8184H161.524C161.537 72.98 161.563 73.1455 161.565 73.3111C161.565 74.1291 161.565 74.949 161.565 75.7689C161.565 75.9542 161.583 76.1415 161.593 76.374C161.79 76.3859 161.953 76.4036 162.121 76.4036C163.288 76.4036 164.452 76.3878 165.619 76.4036C166.233 76.409 166.845 76.4611 167.45 76.5593C168.564 76.7564 169.141 77.3379 169.342 78.4436C169.479 79.1736 169.462 79.9243 169.291 80.6472C169.219 81.0136 169.045 81.3524 168.789 81.6244C168.534 81.8964 168.206 82.0905 167.845 82.1845C167.5 82.2969 167.142 82.3631 166.78 82.3816C164.385 82.4033 161.991 82.4033 159.596 82.4073C159.507 82.4009 159.419 82.389 159.332 82.3718ZM161.602 80.5112C161.667 80.5283 161.733 80.5415 161.799 80.5506C163.246 80.5506 164.695 80.5506 166.136 80.5506C166.292 80.5418 166.447 80.5134 166.597 80.4658C166.991 80.3555 167.133 80.046 167.139 79.6774C167.139 79.2162 167.251 78.7057 166.717 78.4258C166.634 78.3805 166.544 78.3499 166.451 78.3352C166.218 78.2949 165.983 78.2712 165.747 78.2642C164.521 78.2642 163.293 78.2642 162.066 78.2642C161.916 78.2642 161.766 78.2918 161.587 78.3096L161.602 80.5112Z" fill="#1B4F9B"/>
<path d="M161.947 23.2395H159.582C159.484 22.9064 159.452 11.7013 159.551 11.0371H161.928C162.011 11.3879 162.04 22.5418 161.947 23.2395Z" fill="#1B4F9B"/>
<path d="M174.057 82.3696C173.987 82.3877 173.915 82.4002 173.842 82.407H171.909C171.881 82.2671 171.863 82.1256 171.854 81.9833C171.854 79.0544 171.854 76.1248 171.854 73.1946C171.854 73.0862 171.875 72.9778 171.885 72.8773C172.226 72.7767 173.462 72.7551 174.043 72.8339C174.134 73.1808 174.154 81.8197 174.057 82.3696Z" fill="#1B4F9B"/>
<path d="M179.401 74.4043L182.138 68.0479C182.481 68.1287 183.954 69.0018 184.421 69.398C184.35 69.5103 184.283 69.6325 184.204 69.7429C183.142 71.2507 182.069 72.7487 181.019 74.2644C180.81 74.5659 180.613 74.7039 180.244 74.5758C179.967 74.5001 179.685 74.4428 179.401 74.4043Z" fill="#1B4F9B"/>
</svg>
