<svg width="310" height="100" viewBox="0 0 310 100" fill="none" xmlns="http://www.w3.org/2000/svg">
<rect width="310" height="100" fill="#E7282D"/>
<g clip-path="url(#clip0_425_1312)">
<path d="M205 100H105V0H205V100Z" fill="#E7282D"/>
<path d="M117.5 50V12.5H192.5V50H117.5Z" fill="white"/>
<path d="M120.6 34.46H189.14V47.62H120.6V34.46Z" fill="black"/>
<path d="M123.18 37.42H125.65V39.54H128.65V37.42H131.12V44.13H128.65V41.57H125.65V44.13H123.18V37.42ZM134.1 37.42H136.57V41.21L140.01 37.42H142.57V44.13H140.1V40.14L136.48 44.13H134.1V37.42ZM145.52 37.42V44.13H147.99V41.57H150.99V44.13H153.54V42.2C153.54 41.8 153.4 41.45 153.13 41.15C152.85 40.86 152.56 40.68 152.25 40.62C152.43 40.59 152.62 40.52 152.83 40.4C153.03 40.28 153.2 40.12 153.34 39.92C153.47 39.72 153.54 39.48 153.54 39.2V37.42H150.99V39.54H147.99V37.42H145.52ZM158.92 42.28H162.53V39.1H158.92V42.28ZM163.15 37.25C163.79 37.25 164.26 37.41 164.56 37.75C164.86 38.08 165 38.53 165 39.1V42.28C165 42.84 164.86 43.29 164.56 43.62C164.26 43.96 163.79 44.13 163.15 44.13H158.3C157.66 44.13 157.19 43.96 156.89 43.62C156.6 43.29 156.45 42.84 156.45 42.28V39.1C156.45 38.53 156.6 38.08 156.9 37.75C157.2 37.41 157.66 37.25 158.3 37.25H163.15ZM173.48 39.28V44.13H175.95V37.42H169.86C169.23 37.42 168.77 37.59 168.46 37.93C168.16 38.27 168.01 38.72 168.01 39.28V42.19H167.48V44.13H170.48V39.28H173.48ZM181.35 42.28H184.35V41.66H181.97V39.89H184.62C185.1 39.89 185.51 40 185.84 40.2C186.18 40.41 186.43 40.67 186.58 40.99C186.74 41.32 186.82 41.65 186.82 41.98C186.82 42.63 186.64 43.15 186.28 43.54C185.92 43.93 185.37 44.13 184.62 44.13H178.88V37.42H181.35V42.28Z" fill="#FEFEFE"/>
<path d="M121.07 18.6201H130.08V20.7401H127.4V29.3901H123.75V20.7401H121.07V18.6201ZM142.47 18.7901V20.3301H139.98C139.51 20.3301 139.2 20.4201 139.05 20.6201C138.91 20.8101 138.83 21.1701 138.83 21.6801V23.2301H142.09V24.9601H138.83V26.6901C138.83 27.4701 139.15 27.8601 139.79 27.8601H142.67V29.3901H137.11C136.46 29.3901 135.98 29.1801 135.66 28.7701C135.34 28.3501 135.18 27.7901 135.18 27.0901V21.0901C135.18 20.3501 135.38 19.7801 135.79 19.3901C136.19 18.9901 136.7 18.7901 137.31 18.7901H142.47ZM147.7 18.6201H151.71L153.53 21.6701L155.46 18.6201H157.36L154.28 23.2201L157.76 29.3901H153.73L152 26.3001L150.08 29.3901H147.97L151.21 24.7501L147.7 18.6201ZM168.83 22.6601V18.6201H172.48V29.3901H168.83V24.7401H166.49V29.3901H162.86V18.6201H166.49V22.6601H168.83ZM185.05 23.8001C185.05 22.8401 184.94 21.9601 184.72 21.1601C184.51 20.3601 184.1 19.9601 183.5 19.9601C182.34 19.9601 181.76 21.4301 181.76 24.3601C181.76 25.2901 181.88 26.1601 182.12 26.9801C182.37 27.7901 182.83 28.2001 183.5 28.2001C184.17 28.2001 184.59 27.8001 184.77 26.9901C184.95 26.1901 185.05 25.1301 185.05 23.8001ZM183.5 18.6201C184.69 18.6201 185.69 18.8701 186.5 19.3701C187.3 19.8801 187.9 20.5301 188.29 21.3401C188.68 22.1501 188.87 23.0101 188.87 23.9201V24.3601C188.87 24.8101 188.8 25.2401 188.67 25.6501C188.54 26.0701 188.34 26.5001 188.09 26.9501C187.63 27.7401 187 28.3701 186.22 28.8501C185.44 29.3301 184.58 29.5601 183.63 29.5601H183.3C182.76 29.5601 182.26 29.4901 181.79 29.3501C181.33 29.2101 180.87 29.0001 180.44 28.7301C179.67 28.2501 179.09 27.6001 178.69 26.7901C178.3 25.9801 178.1 25.0501 178.1 24.0001V23.6601C178.1 22.6801 178.33 21.8201 178.78 21.0801C179.23 20.3301 179.87 19.7501 180.69 19.3301C181.13 19.1101 181.58 18.9401 182.05 18.8101C182.53 18.6801 183.01 18.6201 183.5 18.6201Z" fill="#7D7D7D"/>
<path d="M148.12 12.5L151.71 18.62H147.7L144.11 12.5H148.12Z" fill="#FFB433"/>
<path d="M127.17 68.3703H124.64V73.6803H122.36V68.3703H119.83V66.6103H127.17V68.3703ZM136.32 70.1503C136.32 70.8003 136.28 71.3003 136.21 71.6703C136.09 72.2703 135.86 72.7203 135.53 73.0303C135.19 73.3503 134.71 73.5603 134.09 73.6603C133.7 73.7303 133.15 73.7603 132.43 73.7603C131.72 73.7603 131.17 73.7303 130.78 73.6603C130.15 73.5603 129.67 73.3503 129.34 73.0303C129 72.7203 128.78 72.2703 128.65 71.6703C128.58 71.3003 128.54 70.8003 128.54 70.1503C128.54 69.5003 128.58 68.9803 128.65 68.6103C128.78 68.0203 129 67.5703 129.34 67.2603C129.68 66.9503 130.15 66.7403 130.77 66.6303C131.16 66.5703 131.72 66.5303 132.43 66.5303C133.15 66.5303 133.7 66.5703 134.1 66.6303C134.71 66.7403 135.19 66.9503 135.52 67.2603C135.86 67.5703 136.09 68.0203 136.21 68.6103C136.28 68.9803 136.32 69.5003 136.32 70.1503ZM133.98 70.1503C133.98 69.7803 133.97 69.5303 133.95 69.3903C133.91 69.1803 133.84 68.9903 133.71 68.8103C133.57 68.5903 133.39 68.4503 133.18 68.3703C133.02 68.3203 132.77 68.2903 132.43 68.2903C132.1 68.2903 131.85 68.3203 131.68 68.3703C131.47 68.4503 131.29 68.5903 131.15 68.8103C130.97 69.0703 130.89 69.5203 130.89 70.1503C130.89 70.7703 130.97 71.2203 131.15 71.4903C131.29 71.7103 131.47 71.8503 131.68 71.9303C131.85 71.9803 132.1 72.0103 132.43 72.0103C132.77 72.0103 133.02 71.9803 133.18 71.9303C133.39 71.8503 133.57 71.7103 133.71 71.4903C133.89 71.2403 133.98 70.7903 133.98 70.1503ZM145.44 69.0403C145.44 70.1603 145.23 70.9003 144.81 71.2603C144.51 71.5203 144.1 71.6403 143.57 71.6403H140.59V73.6803H138.3V67.9503C138.3 67.5203 138.4 67.1903 138.59 66.9803C138.8 66.7403 139.12 66.6103 139.53 66.6103H143.43C144.11 66.6103 144.61 66.7803 144.92 67.1103C145.27 67.4903 145.44 68.1303 145.44 69.0403ZM143.16 69.0903C143.16 68.8303 143.1 68.6503 142.96 68.5403C142.83 68.4303 142.59 68.3703 142.24 68.3703H140.98C140.72 68.3703 140.59 68.5103 140.59 68.7903V69.8903H142.22C142.61 69.8903 142.87 69.8203 142.98 69.7003C143.1 69.5703 143.16 69.3703 143.16 69.0903ZM153.81 68.3703H150.19C149.96 68.3703 149.83 68.4003 149.78 68.4603C149.73 68.5203 149.71 68.6403 149.71 68.8303V73.6803H147.43V67.9103C147.43 67.4803 147.52 67.1603 147.71 66.9603C147.93 66.7303 148.21 66.6103 148.55 66.6103H153.81V68.3703ZM162.97 70.1503C162.97 70.8003 162.93 71.3003 162.85 71.6703C162.73 72.2703 162.51 72.7203 162.17 73.0303C161.84 73.3503 161.36 73.5603 160.73 73.6603C160.34 73.7303 159.79 73.7603 159.08 73.7603C158.36 73.7603 157.81 73.7303 157.42 73.6603C156.8 73.5603 156.32 73.3503 155.98 73.0303C155.65 72.7203 155.42 72.2703 155.3 71.6703C155.23 71.3003 155.19 70.8003 155.19 70.1503C155.19 69.5003 155.23 68.9803 155.3 68.6103C155.42 68.0203 155.65 67.5703 155.99 67.2603C156.32 66.9503 156.8 66.7403 157.41 66.6303C157.81 66.5703 158.36 66.5303 159.08 66.5303C159.79 66.5303 160.35 66.5703 160.74 66.6303C161.36 66.7403 161.83 66.9503 162.17 67.2603C162.5 67.5703 162.73 68.0203 162.85 68.6103C162.93 68.9803 162.97 69.5003 162.97 70.1503ZM160.62 70.1503C160.62 69.7803 160.61 69.5303 160.59 69.3903C160.56 69.1803 160.48 68.9903 160.36 68.8103C160.21 68.5903 160.03 68.4503 159.82 68.3703C159.66 68.3203 159.41 68.2903 159.08 68.2903C158.75 68.2903 158.5 68.3203 158.33 68.3703C158.11 68.4503 157.94 68.5903 157.8 68.8103C157.62 69.0703 157.53 69.5203 157.53 70.1503C157.53 70.7703 157.62 71.2203 157.8 71.4903C157.94 71.7103 158.11 71.8503 158.33 71.9303C158.5 71.9803 158.75 72.0103 159.08 72.0103C159.41 72.0103 159.66 71.9803 159.82 71.9303C160.03 71.8503 160.21 71.7103 160.36 71.4903C160.54 71.2403 160.62 70.7903 160.62 70.1503ZM171.97 71.7003C171.97 72.3903 171.83 72.8903 171.54 73.1903C171.34 73.4103 171.1 73.5603 170.81 73.6203C170.63 73.6603 170.35 73.6803 169.96 73.6803H166.26C165.76 73.6803 165.41 73.5703 165.21 73.3503C165.04 73.1503 164.95 72.8903 164.95 72.5603V67.7603C164.95 67.4203 165.03 67.1603 165.19 66.9703C165.39 66.7303 165.66 66.6103 165.99 66.6103H169.83C170.55 66.6103 171.07 66.7703 171.36 67.0803C171.66 67.3903 171.81 67.8903 171.81 68.5903C171.81 69.0703 171.69 69.4403 171.45 69.6903C171.26 69.9103 171.02 70.0303 170.75 70.0503V70.0903C171.08 70.1203 171.36 70.2403 171.58 70.4503C171.84 70.7003 171.97 71.1203 171.97 71.7003ZM169.54 68.8203C169.54 68.6903 169.5 68.5903 169.42 68.5003C169.34 68.4203 169.17 68.3703 168.92 68.3703H167.62C167.48 68.3703 167.38 68.4003 167.32 68.4503C167.26 68.5103 167.23 68.6103 167.23 68.7603V69.3303H168.93C169.23 69.3303 169.41 69.2603 169.48 69.1203C169.52 69.0403 169.54 68.9403 169.54 68.8203ZM169.69 71.3703C169.69 71.2503 169.66 71.1503 169.6 71.0703C169.49 70.9303 169.3 70.8703 169.01 70.8703H167.23V71.4003C167.23 71.6203 167.26 71.7703 167.32 71.8303C167.38 71.8903 167.52 71.9303 167.74 71.9303H168.95C169.27 71.9303 169.48 71.8803 169.56 71.7803C169.64 71.6803 169.69 71.5503 169.69 71.3703ZM181.71 73.6803H179.31L178.75 72.2303H176.21L175.65 73.6803H173.25L175.86 67.3903C175.98 67.1003 176.14 66.8903 176.35 66.7703C176.6 66.6103 176.97 66.5303 177.48 66.5303C177.89 66.5303 178.2 66.5803 178.42 66.6603C178.72 66.7903 178.95 67.0403 179.09 67.3903L181.71 73.6803ZM178.2 70.6103L177.57 68.8303C177.53 68.7203 177.5 68.6703 177.48 68.6703C177.45 68.6703 177.42 68.7203 177.39 68.8303L176.75 70.6103H178.2ZM190.17 73.6803H187.88V68.8403C187.88 68.6803 187.84 68.5603 187.76 68.4903C187.67 68.4103 187.55 68.3703 187.4 68.3703H185.97C185.74 68.3703 185.57 68.4403 185.47 68.5703C185.37 68.7003 185.32 68.8903 185.32 69.1403C185.32 69.4003 185.35 69.5703 185.4 69.6503C185.51 69.8603 185.71 69.9603 186.01 69.9603H186.47C187.16 69.9603 187.5 70.1903 187.5 70.6503V70.8203C187.5 71.0803 187.36 71.4103 187.07 71.7903L185.63 73.6803H182.89L184.85 71.5703H184.55C184.01 71.5703 183.61 71.3503 183.35 70.9003C183.14 70.5303 183.04 69.8903 183.04 68.9803C183.04 68.2203 183.15 67.6603 183.38 67.3003C183.56 67.0203 183.81 66.8303 184.13 66.7303C184.35 66.6503 184.67 66.6103 185.08 66.6103H189.14C189.45 66.6103 189.71 66.7203 189.91 66.9403C190.08 67.1203 190.17 67.4003 190.17 67.7703V73.6803ZM145.66 83.4703H142.53C141.93 83.4703 141.47 83.4103 141.12 83.3103C140.72 83.1703 140.38 82.9303 140.11 82.6003C139.68 82.0603 139.47 81.2003 139.47 80.0203C139.47 78.7403 139.67 77.8403 140.08 77.3203C140.57 76.7003 141.39 76.4003 142.56 76.4003H145.55V78.1503H143.66C143.19 78.1503 142.86 78.1803 142.69 78.2303C142.4 78.2903 142.18 78.4503 142.04 78.7103C141.89 78.9903 141.81 79.4103 141.81 79.9803C141.81 80.5503 141.87 80.9403 141.98 81.1503C142.11 81.4003 142.34 81.5603 142.67 81.6403C142.86 81.6903 143.21 81.7103 143.7 81.7103H145.66V83.4703ZM153.81 83.4703H148.72C148.34 83.4703 148.06 83.3903 147.86 83.2203C147.65 83.0403 147.54 82.7503 147.54 82.3403V77.4903C147.54 77.1403 147.64 76.8703 147.84 76.6803C148.04 76.4903 148.33 76.4003 148.7 76.4003H153.78V78.1103H150.29C150.13 78.1103 150.02 78.1503 149.94 78.2103C149.86 78.2703 149.82 78.3903 149.82 78.5603V79.0903H153.68V80.6303H149.82V81.4003C149.82 81.5103 149.86 81.6003 149.92 81.6603C149.99 81.7203 150.13 81.7503 150.36 81.7503H153.81V83.4703ZM162.42 78.1503H159.9V83.4703H157.61V78.1503H155.09V76.4003H162.42V78.1503ZM171.14 81.2503C171.14 81.9403 171.03 82.4503 170.81 82.7803C170.5 83.2403 170.03 83.4703 169.39 83.4703H165.01C164.73 83.4703 164.5 83.3503 164.3 83.1303C164.1 82.9003 164 82.5703 164 82.1303V76.4003H166.28V78.9503H169.45C170.14 78.9503 170.61 79.2203 170.87 79.7603C171.05 80.1403 171.14 80.6303 171.14 81.2503ZM168.8 81.0803C168.8 80.8203 168.71 80.6603 168.53 80.5903C168.46 80.5603 168.26 80.5503 167.94 80.5503H166.28V81.2903C166.28 81.4403 166.3 81.5403 166.34 81.6003C166.4 81.6703 166.52 81.7103 166.72 81.7103H167.9C168.28 81.7103 168.5 81.6903 168.57 81.6503C168.72 81.5603 168.8 81.3703 168.8 81.0803Z" fill="#FEFEFE"/>
</g>
<defs>
<clipPath id="clip0_425_1312">
<rect width="100" height="100" fill="white" transform="translate(105)"/>
</clipPath>
</defs>
</svg>
